<svg width="200" height="200" viewBox="0 0 200 200" fill="none" xmlns="http://www.w3.org/2000/svg">
<g clip-path="url(#clip0_381_1018)">
<path d="M120.588 11.7652H179.412C180.972 11.7652 182.468 12.3849 183.571 13.4881C184.674 14.5912 185.294 16.0874 185.294 17.6475V76.4711C185.294 78.0312 184.674 79.5274 183.571 80.6305C182.468 81.7337 180.972 82.3534 179.412 82.3534H120.588C119.028 82.3534 117.532 81.7337 116.429 80.6305C115.326 79.5274 114.706 78.0312 114.706 76.4711V17.6475C114.706 16.0874 115.326 14.5912 116.429 13.4881C117.532 12.3849 119.028 11.7652 120.588 11.7652ZM11.7647 126.471H70.5882C72.1483 126.471 73.6445 127.091 74.7477 128.194C75.8508 129.297 76.4706 130.793 76.4706 132.353V191.177C76.4706 192.737 75.8508 194.233 74.7477 195.336C73.6445 196.44 72.1483 197.059 70.5882 197.059H11.7647C10.2046 197.059 8.70841 196.44 7.60525 195.336C6.5021 194.233 5.88235 192.737 5.88235 191.177V132.353C5.88235 130.793 6.5021 129.297 7.60525 128.194C8.70841 127.091 10.2046 126.471 11.7647 126.471ZM158.024 117.624L199.2 188.212C201.485 192.136 198.659 197.059 194.118 197.059H111.765C107.224 197.059 104.397 192.136 106.682 188.212L147.859 117.624C150.129 113.733 155.753 113.733 158.024 117.624ZM44.1176 2.94165C68.4824 2.94165 88.2353 22.6946 88.2353 47.0593C88.2353 71.424 68.4824 91.1769 44.1176 91.1769C19.7529 91.1769 0 71.424 0 47.0593C0 22.6946 19.7529 2.94165 44.1176 2.94165Z" fill="#525252"/>
</g>
<defs>
<clipPath id="clip0_381_1018">
<rect width="200" height="200" fill="white" transform="translate(0 0.000488281)"/>
</clipPath>
</defs>
</svg>
