<svg width="200" height="200" viewBox="0 0 200 200" fill="none" xmlns="http://www.w3.org/2000/svg">
<path d="M99.9095 200C106.426 200 111.765 195.205 112.67 188.417C121.629 127.964 129.864 119.548 187.964 112.942C194.66 112.127 199.819 106.517 199.819 100.001C199.819 93.394 194.751 87.9644 188.054 86.9689C130.317 78.9146 123.168 71.8558 112.67 11.4942C111.493 4.79726 106.335 0.000488281 99.9095 0.000488281C93.3035 0.000488281 88.0539 4.79725 86.9684 11.5842C78.1904 71.9467 69.9551 80.3629 11.9456 86.9689C5.06772 87.8744 0 93.304 0 100.001C0 106.517 4.88679 111.947 11.7647 112.942C69.5924 121.177 76.6512 128.145 86.9684 188.508C88.3258 195.295 93.5744 200 99.9095 200Z" fill="#262626"/>
</svg>
